<svg width="24" height="24" viewBox="0 0 24 24" fill="none" xmlns="http://www.w3.org/2000/svg">
<path d="M22.5355 17.8319C22.5164 17.6632 22.4591 17.5011 22.3681 17.3579C22.2771 17.2146 22.1546 17.0939 22.01 17.005L18.2571 14.6812C17.898 14.4577 17.4738 14.3625 17.0536 14.4114C16.6335 14.4602 16.2423 14.6501 15.9441 14.95L14.6983 16.1962C14.652 16.2433 14.5936 16.2767 14.5295 16.2926C14.4655 16.3085 14.3982 16.3063 14.3353 16.2862C13.6538 16.0562 12.2391 15.3985 10.4203 13.5799C8.60158 11.7613 7.94402 10.3459 7.71385 9.66441C7.6939 9.60156 7.69176 9.53442 7.70764 9.47042C7.72353 9.40643 7.75683 9.34808 7.80385 9.30186L9.04971 8.056C9.34979 7.75785 9.53977 7.36667 9.58854 6.94647C9.6373 6.52628 9.54196 6.10198 9.31813 5.74303L6.99482 1.98996C6.90557 1.84567 6.78484 1.72345 6.64166 1.63245C6.49848 1.54144 6.33656 1.48401 6.16803 1.46446C5.99951 1.44491 5.82874 1.46374 5.66853 1.51955C5.50832 1.57536 5.36281 1.66669 5.2429 1.78671L2.88595 4.14373C2.12739 4.90305 1.64044 5.89135 1.50055 6.95548C1.36065 8.01962 1.57561 9.1002 2.11213 10.0298C3.50464 12.4978 5.22951 14.7628 7.23838 16.7615C9.23705 18.7704 11.5022 20.4953 13.9703 21.8877C14.8998 22.4245 15.9804 22.6397 17.0446 22.4998C18.1088 22.3598 19.0971 21.8727 19.8563 21.1139L22.2132 18.757C22.3335 18.6373 22.425 18.4918 22.4809 18.3315C22.5367 18.1713 22.5554 18.0004 22.5355 17.8319Z" fill="#1B8271"/>
</svg>
