<svg width="24" height="24" viewBox="0 0 24 24" fill="none" xmlns="http://www.w3.org/2000/svg">
<path d="M9.59 13H3C2.73478 13 2.48043 12.8946 2.29289 12.7071C2.10536 12.5196 2 12.2652 2 12C2 11.7348 2.10536 11.4804 2.29289 11.2929C2.48043 11.1054 2.73478 11 3 11H9.59L9.29 10.71C9.1017 10.5217 8.99591 10.2663 8.99591 10C8.99591 9.7337 9.1017 9.4783 9.29 9.29C9.4783 9.1017 9.7337 8.99591 10 8.99591C10.2663 8.99591 10.5217 9.1017 10.71 9.29L12.71 11.29C12.8037 11.383 12.8781 11.4936 12.9289 11.6154C12.9797 11.7373 13.0058 11.868 13.0058 12C13.0058 12.132 12.9797 12.2627 12.9289 12.3846C12.8781 12.5064 12.8037 12.617 12.71 12.71L10.71 14.71C10.617 14.8037 10.5064 14.8781 10.3846 14.9289C10.2627 14.9797 10.132 15.0058 10 15.0058C9.86799 15.0058 9.73728 14.9797 9.61542 14.9289C9.49356 14.8781 9.38296 14.8037 9.29 14.71C9.19627 14.617 9.12188 14.5064 9.07111 14.3846C9.02034 14.2627 8.9942 14.132 8.9942 14C8.9942 13.868 9.02034 13.7373 9.07111 13.6154C9.12188 13.4936 9.19627 13.383 9.29 13.29L9.59 13ZM19 2H9C8.20435 2 7.44129 2.31607 6.87868 2.87868C6.31607 3.44129 6 4.20435 6 5V8C6 8.26522 6.10536 8.51957 6.29289 8.70711C6.48043 8.89464 6.73478 9 7 9C7.26522 9 7.51957 8.89464 7.70711 8.70711C7.89464 8.51957 8 8.26522 8 8V5C8 4.73478 8.10536 4.48043 8.29289 4.29289C8.48043 4.10536 8.73478 4 9 4H19C19.2652 4 19.5196 4.10536 19.7071 4.29289C19.8946 4.48043 20 4.73478 20 5V19C20 19.2652 19.8946 19.5196 19.7071 19.7071C19.5196 19.8946 19.2652 20 19 20H9C8.73478 20 8.48043 19.8946 8.29289 19.7071C8.10536 19.5196 8 19.2652 8 19V16C8 15.7348 7.89464 15.4804 7.70711 15.2929C7.51957 15.1054 7.26522 15 7 15C6.73478 15 6.48043 15.1054 6.29289 15.2929C6.10536 15.4804 6 15.7348 6 16V19C6 19.7956 6.31607 20.5587 6.87868 21.1213C7.44129 21.6839 8.20435 22 9 22H19C19.7956 22 20.5587 21.6839 21.1213 21.1213C21.6839 20.5587 22 19.7956 22 19V5C22 4.20435 21.6839 3.44129 21.1213 2.87868C20.5587 2.31607 19.7956 2 19 2Z" fill="white"/>
</svg>
